<?xml version="1.0" encoding="utf-8"?>
<!-- Generator: Adobe Illustrator 16.0.0, SVG Export Plug-In . SVG Version: 6.00 Build 0)  -->
<!DOCTYPE svg PUBLIC "-//W3C//DTD SVG 1.1//EN" "http://www.w3.org/Graphics/SVG/1.1/DTD/svg11.dtd">
<svg version="1.1" id="Layer_1" xmlns="http://www.w3.org/2000/svg" xmlns:xlink="http://www.w3.org/1999/xlink" x="0px" y="0px"
	 width="6.688px" height="7.375px" viewBox="0 0 6.688 7.375" enable-background="new 0 0 6.688 7.375" xml:space="preserve">
<path fill="#B2B3B3" d="M4.892,6.437H0.543C0.243,6.437,0,6.196,0,5.899V3.218c0-0.296,0.243-0.536,0.543-0.536h0.271V1.877
	C0.815,0.84,1.667,0,2.717,0C3.768,0,4.62,0.84,4.62,1.877v0.805h0.271c0.3,0,0.543,0.24,0.543,0.536v2.682
	C5.435,6.195,5.192,6.437,4.892,6.437z M3.805,1.877c0-0.592-0.487-1.073-1.087-1.073c-0.6,0-1.087,0.48-1.087,1.073v0.805h2.174
	V1.877z"/>
</svg>
