<?xml version="1.0" encoding="utf-8"?>
<!-- Generator: Adobe Illustrator 16.0.0, SVG Export Plug-In . SVG Version: 6.00 Build 0)  -->
<!DOCTYPE svg PUBLIC "-//W3C//DTD SVG 1.1//EN" "http://www.w3.org/Graphics/SVG/1.1/DTD/svg11.dtd">
<svg version="1.1" id="Layer_1" xmlns="http://www.w3.org/2000/svg" xmlns:xlink="http://www.w3.org/1999/xlink" x="0px" y="0px"
	 width="6.688px" height="7.375px" viewBox="0 0 6.688 7.375" enable-background="new 0 0 6.688 7.375" xml:space="preserve">
<path fill="#B2B3B3" d="M4.687,1.407c0,0.185,0.15,0.335,0.335,0.335c0.185,0,0.335-0.15,0.335-0.335s-0.15-0.335-0.335-0.335
	C4.837,1.072,4.687,1.223,4.687,1.407z M4.687,3.552c0,0.185,0.15,0.335,0.335,0.335c0.185,0,0.335-0.15,0.335-0.335
	c0-0.186-0.15-0.336-0.335-0.336C4.837,3.216,4.687,3.366,4.687,3.552z M0,4.423c0,0.296,0.24,0.535,0.536,0.535h2.277v0.37
	C2.747,5.372,2.69,5.429,2.646,5.494H1.004c-0.185,0-0.335,0.15-0.335,0.335c0,0.186,0.15,0.335,0.335,0.335h1.642
	c0.108,0.162,0.292,0.269,0.501,0.269S3.54,6.326,3.648,6.164h1.776c0.185,0,0.334-0.149,0.334-0.335
	c0-0.185-0.15-0.335-0.334-0.335H3.648C3.604,5.429,3.547,5.372,3.482,5.328v-0.37h2.411c0.296,0,0.536-0.239,0.536-0.535V0.536
	C6.428,0.24,6.188,0,5.893,0H0.536C0.24,0,0,0.24,0,0.536V4.423L0,4.423z M0.964,0.67h4.5c0.164,0,0.294,0.132,0.294,0.295V1.85
	c0,0.163-0.131,0.295-0.294,0.295h-4.5c-0.164,0-0.295-0.132-0.295-0.295V0.965C0.669,0.802,0.801,0.67,0.964,0.67z M0.964,2.814
	h4.5c0.164,0,0.294,0.131,0.294,0.295v0.884c0,0.164-0.131,0.295-0.294,0.295h-4.5c-0.164,0-0.295-0.131-0.295-0.295V3.109
	C0.669,2.945,0.801,2.814,0.964,2.814z"/>
</svg>
