<?xml version="1.0" encoding="utf-8"?>
<!-- Generator: Adobe Illustrator 16.0.0, SVG Export Plug-In . SVG Version: 6.00 Build 0)  -->
<!DOCTYPE svg PUBLIC "-//W3C//DTD SVG 1.1//EN" "http://www.w3.org/Graphics/SVG/1.1/DTD/svg11.dtd">
<svg version="1.1" id="Layer_1" xmlns="http://www.w3.org/2000/svg" xmlns:xlink="http://www.w3.org/1999/xlink" x="0px" y="0px"
	 width="6.688px" height="7.375px" viewBox="0 0 6.688 7.375" enable-background="new 0 0 6.688 7.375" xml:space="preserve">
<path fill="#B2B3B3" d="M3.945,4.641C3.92,4.375,3.93,4.189,3.93,3.947C4.05,3.883,4.266,3.48,4.302,3.141
	c0.095-0.008,0.244-0.1,0.288-0.465C4.614,2.48,4.52,2.37,4.463,2.335c0.153-0.463,0.473-1.896-0.592-2.044
	C3.762,0.098,3.481,0,3.116,0C1.657,0.027,1.481,1.103,1.801,2.335C1.744,2.37,1.65,2.48,1.674,2.676
	c0.044,0.365,0.193,0.457,0.287,0.465c0.037,0.34,0.261,0.743,0.381,0.806c0,0.242,0.009,0.428-0.015,0.694
	C2.039,5.417,0.09,5.2,0,6.699h6.264C6.174,5.2,4.234,5.417,3.945,4.641z"/>
</svg>
